<?xml version="1.0" encoding="UTF-8"?>
<svg id="katman_2" data-name="katman 2" xmlns="http://www.w3.org/2000/svg" viewBox="0 0 331.36 206.06">
  <defs>
    <style>
      .cls-1 {
        fill: #00abc8;
      }

      .cls-1, .cls-2 {
        stroke-width: 0px;
      }

      .cls-2 {
        fill: #002554;
      }
    </style>
  </defs>
  <g id="Layer_1" data-name="Layer 1">
    <g>
      <g>
        <path class="cls-1" d="m78.27,89.95c20.8-13.95,44.05-22.4,67.84-25.4l19.57-20.14,19.57,20.14c23.78,2.99,47.04,11.44,67.84,25.4,0,0,0,0,0,0h0L165.68,0l-87.42,89.95h0s0,0,0,0Z"/>
        <path class="cls-2" d="m263.38,137.06l13.33-13.8h0c-61.32-63.49-160.74-63.49-222.06,0h0s13.33,13.8,13.33,13.8c57.04-47.05,138.37-47.05,195.4,0Z"/>
      </g>
      <g>
        <g>
          <path class="cls-2" d="m7.79,164.54c-.15,0-.2.05-.26.22l-1.57,3.77c-.29.69-.44,1.35-.44,1.68,0,.5.26.85,1.16.85h.44c.35,0,.44.05.44.22,0,.22-.17.28-.49.28-.93,0-2.18-.08-3.08-.08-.32,0-1.92.08-3.43.08-.38,0-.55-.05-.55-.28,0-.17.12-.22.35-.22.26,0,.67-.03.9-.05,1.34-.16,1.89-1.1,2.47-2.47l7.3-17.04c.35-.8.52-1.1.81-1.1.26,0,.44.25.73.88.7,1.51,5.35,12.51,7.21,16.68,1.1,2.47,1.95,2.86,2.56,3,.44.08.87.11,1.22.11.23,0,.38.03.38.22,0,.22-.26.28-1.34.28s-3.17,0-5.49-.05c-.52-.03-.87-.03-.87-.22,0-.17.12-.22.41-.25.2-.05.41-.3.26-.63l-2.33-5.66c-.06-.14-.14-.19-.29-.19h-6.48Zm5.93-1.37c.15,0,.17-.08.15-.16l-2.62-6.76c-.03-.11-.06-.25-.14-.25s-.15.14-.17.25l-2.68,6.73c-.03.11,0,.19.12.19h5.35Z"/>
          <path class="cls-2" d="m35.58,167.81c.06,2.14.44,2.86,1.02,3.05.49.17,1.05.19,1.51.19.32,0,.49.05.49.22,0,.22-.26.28-.67.28-1.89,0-3.05-.08-3.6-.08-.26,0-1.63.08-3.14.08-.38,0-.64-.03-.64-.28,0-.17.17-.22.47-.22.38,0,.9-.03,1.31-.14.76-.22.87-1.02.9-3.41l.26-16.19c0-.55.09-.93.38-.93.32,0,.58.36,1.08.85.35.36,4.77,4.76,9.01,8.74,1.98,1.87,5.9,5.83,6.4,6.27h.15l-.29-12.34c-.03-1.68-.29-2.2-.99-2.47-.44-.17-1.13-.17-1.54-.17-.35,0-.46-.08-.46-.25,0-.22.32-.25.76-.25,1.51,0,2.91.08,3.52.08.32,0,1.42-.08,2.85-.08.38,0,.67.03.67.25,0,.16-.17.25-.52.25-.29,0-.52,0-.87.08-.81.22-1.05.8-1.08,2.34l-.32,17.34c0,.6-.12.85-.38.85-.32,0-.67-.3-.99-.6-1.83-1.65-5.55-5.25-8.58-8.08-3.17-2.97-6.4-6.32-6.92-6.84h-.09l.32,11.46Z"/>
          <path class="cls-2" d="m72.32,152.3l-4.33.11c-1.69.06-2.38.19-2.82.8-.29.41-.44.74-.49.96-.06.22-.14.33-.32.33-.2,0-.26-.14-.26-.44,0-.44.55-2.94.61-3.16.09-.36.17-.52.35-.52.23,0,.52.27,1.25.33.84.08,1.95.14,2.91.14h11.51c.93,0,1.57-.08,2.01-.14.44-.08.67-.14.79-.14.2,0,.23.16.23.58,0,.58-.09,2.47-.09,3.19-.03.28-.09.44-.26.44-.23,0-.29-.14-.32-.55l-.03-.3c-.06-.71-.84-1.48-3.43-1.54l-3.66-.08v11.27c0,2.53,0,4.7.15,5.88.09.77.26,1.37,1.13,1.48.41.05,1.05.11,1.48.11.32,0,.46.08.46.22,0,.19-.23.28-.55.28-1.92,0-3.75-.08-4.56-.08-.67,0-2.5.08-3.66.08-.38,0-.58-.08-.58-.28,0-.14.12-.22.46-.22.44,0,.79-.05,1.05-.11.58-.11.76-.71.84-1.51.14-1.15.14-3.33.14-5.85v-11.27Z"/>
          <path class="cls-2" d="m95.48,164.54c-.15,0-.2.05-.26.22l-1.57,3.77c-.29.69-.44,1.35-.44,1.68,0,.5.26.85,1.16.85h.44c.35,0,.44.05.44.22,0,.22-.17.28-.49.28-.93,0-2.18-.08-3.08-.08-.32,0-1.92.08-3.43.08-.38,0-.55-.05-.55-.28,0-.17.12-.22.35-.22.26,0,.67-.03.9-.05,1.34-.16,1.89-1.1,2.47-2.47l7.3-17.04c.35-.8.52-1.1.81-1.1.26,0,.44.25.73.88.7,1.51,5.35,12.51,7.21,16.68,1.1,2.47,1.95,2.86,2.56,3,.44.08.87.11,1.22.11.23,0,.38.03.38.22,0,.22-.26.28-1.34.28s-3.17,0-5.49-.05c-.52-.03-.87-.03-.87-.22,0-.17.12-.22.41-.25.2-.05.41-.3.26-.63l-2.33-5.66c-.06-.14-.14-.19-.29-.19h-6.48Zm5.93-1.37c.15,0,.17-.08.15-.16l-2.62-6.76c-.03-.11-.06-.25-.14-.25s-.15.14-.17.25l-2.68,6.73c-.03.11,0,.19.12.19h5.35Z"/>
          <path class="cls-2" d="m125.28,163.57c0,3.52,0,5.41.61,5.91.49.41,1.25.6,3.52.6,1.54,0,2.68-.03,3.4-.77.35-.36.7-1.13.76-1.65.03-.25.09-.41.32-.41.2,0,.23.14.23.47,0,.3-.2,2.36-.44,3.16-.17.6-.32.74-1.83.74-2.09,0-3.6-.05-4.91-.08-1.31-.05-1.69-.08-2.88-.08-.32,0-.96,0-1.66.03-.67,0-1.42.05-2.01.05-.38,0-.58-.08-.58-.28,0-.14.12-.22.47-.22.44,0,.78-.05,1.05-.11.58-.11.73-.71.84-1.51.15-1.15.15-3.33.15-5.85v-4.84c0-4.18,0-4.95-.06-5.83-.06-.93-.29-1.37-1.25-1.57-.23-.05-.58-.08-.96-.08-.32,0-.49-.05-.49-.25s.2-.25.64-.25c1.37,0,3.2.08,3.98.08.7,0,2.15-.08,3.29-.08.41,0,.61.05.61.25s-.17.25-.52.25c-.32,0-.78.03-1.13.08-.78.14-1.02.6-1.08,1.57-.06.88-.06,1.65-.06,5.83v4.84Z"/>
          <path class="cls-2" d="m148.3,164.43c0-1.48-.29-2.09-.67-2.89-.2-.44-4.1-6.49-5.12-7.91-.73-1.02-1.45-1.7-2.01-2.01-.38-.19-.87-.36-1.22-.36-.23,0-.44-.05-.44-.25,0-.17.2-.25.55-.25.52,0,2.7.08,3.66.08.61,0,1.8-.08,3.11-.08.29,0,.44.08.44.25s-.2.19-.64.3c-.26.05-.41.28-.41.5s.15.55.35.93c.41.83,4.48,7.45,4.94,8.22.29-.66,3.95-6.71,4.36-7.56.29-.6.41-1.07.41-1.43,0-.28-.12-.58-.61-.69-.26-.06-.52-.11-.52-.28,0-.19.15-.25.49-.25.96,0,1.89.08,2.73.08.64,0,2.56-.08,3.11-.08.32,0,.52.05.52.22,0,.19-.23.28-.55.28-.29,0-.84.11-1.28.33-.61.28-.93.6-1.57,1.35-.96,1.1-5.03,7.56-5.55,8.74-.44.99-.44,1.84-.44,2.75v2.25c0,.44,0,1.59.09,2.75.06.8.32,1.4,1.19,1.51.41.05,1.05.11,1.45.11.32,0,.46.08.46.22,0,.19-.23.28-.61.28-1.83,0-3.66-.08-4.45-.08-.73,0-2.56.08-3.63.08-.41,0-.64-.05-.64-.28,0-.14.15-.22.46-.22.41,0,.76-.05,1.02-.11.58-.11.84-.71.9-1.51.09-1.15.09-2.31.09-2.75v-2.25Z"/>
          <path class="cls-2" d="m172.07,164.54c-.15,0-.2.05-.26.22l-1.57,3.77c-.29.69-.44,1.35-.44,1.68,0,.5.26.85,1.16.85h.44c.35,0,.44.05.44.22,0,.22-.17.28-.49.28-.93,0-2.18-.08-3.08-.08-.32,0-1.92.08-3.43.08-.38,0-.55-.05-.55-.28,0-.17.12-.22.35-.22.26,0,.67-.03.9-.05,1.34-.16,1.89-1.1,2.47-2.47l7.3-17.04c.35-.8.52-1.1.81-1.1.26,0,.44.25.73.88.7,1.51,5.35,12.51,7.21,16.68,1.1,2.47,1.95,2.86,2.56,3,.44.08.87.11,1.22.11.23,0,.38.03.38.22,0,.22-.26.28-1.34.28s-3.17,0-5.49-.05c-.52-.03-.87-.03-.87-.22,0-.17.12-.22.41-.25.2-.05.41-.3.26-.63l-2.33-5.66c-.06-.14-.15-.19-.29-.19h-6.48Zm5.93-1.37c.15,0,.17-.08.15-.16l-2.62-6.76c-.03-.11-.06-.25-.14-.25s-.15.14-.17.25l-2.68,6.73c-.03.11,0,.19.12.19h5.35Z"/>
          <path class="cls-2" d="m213.93,158.74c0-4.18,0-4.95-.06-5.83-.06-.93-.29-1.37-1.25-1.57-.23-.05-.73-.08-1.13-.08-.32,0-.49-.05-.49-.25s.2-.25.64-.25c1.54,0,3.37.08,3.95.08,1.42,0,2.56-.08,3.55-.08,5.26,0,6.19,2.67,6.19,4.12,0,2.25-1.37,3.6-2.97,4.81,2.38.77,5.29,2.72,5.29,5.94,0,2.94-2.41,5.99-7.76,5.99-.35,0-1.19-.05-2.04-.08-.87-.05-1.74-.08-2.18-.08-.32,0-.96,0-1.66.03-.67,0-1.42.05-2.01.05-.38,0-.58-.08-.58-.28,0-.14.12-.22.47-.22.44,0,.78-.05,1.05-.11.58-.11.73-.71.84-1.51.15-1.15.15-3.33.15-5.85v-4.84Zm3.49.47c0,.22.09.28.2.3.26.05.7.08,1.37.08.96,0,1.6-.11,2.09-.52.76-.58,1.19-1.57,1.19-2.91,0-1.84-1.13-4.26-3.63-4.26-.41,0-.67,0-.96.06-.2.05-.26.16-.26.47v6.79Zm3.84,2.2c-.61-.41-1.28-.6-2.41-.66-.52-.03-.81-.03-1.25-.03-.12,0-.17.05-.17.19v6.51c0,1.81.09,2.28,1.02,2.64.78.3,1.45.33,2.12.33,1.31,0,3.52-.66,3.52-3.52,0-1.7-.61-4.01-2.82-5.47Z"/>
          <path class="cls-2" d="m240.87,158.74c0-4.18,0-4.95-.06-5.83-.06-.93-.35-1.4-.99-1.54-.32-.08-.7-.11-1.05-.11-.29,0-.46-.05-.46-.28,0-.16.23-.22.7-.22,1.1,0,2.94.08,3.78.08.73,0,2.44-.08,3.55-.08.38,0,.61.05.61.22,0,.22-.17.28-.46.28s-.52.03-.87.08c-.78.14-1.02.6-1.08,1.57-.06.88-.06,1.65-.06,5.83v4.84c0,2.67,0,4.84.12,6.02.09.74.29,1.24,1.16,1.35.41.05,1.05.11,1.48.11.32,0,.46.08.46.22,0,.19-.23.28-.55.28-1.92,0-3.75-.08-4.54-.08-.67,0-2.5.08-3.66.08-.38,0-.58-.08-.58-.28,0-.14.12-.22.47-.22.44,0,.78-.05,1.05-.11.58-.11.76-.58.84-1.37.15-1.15.15-3.33.15-5.99v-4.84Zm.17-11.63c0-.69.46-1.59,1.63-1.59.93,0,1.66.58,1.66,1.48s-.67,1.65-1.66,1.65c-1.16,0-1.63-.85-1.63-1.54Z"/>
          <path class="cls-2" d="m264.62,163.57c0,3.52,0,5.41.61,5.91.49.41,1.25.6,3.52.6,1.54,0,2.68-.03,3.4-.77.35-.36.7-1.13.76-1.65.03-.25.09-.41.32-.41.2,0,.23.14.23.47,0,.3-.2,2.36-.44,3.16-.17.6-.32.74-1.83.74-2.09,0-3.6-.05-4.91-.08-1.31-.05-2.36-.08-3.55-.08-.32,0-.96,0-1.66.03-.67,0-1.42.05-2.01.05-.38,0-.58-.08-.58-.28,0-.14.12-.22.47-.22.44,0,.78-.05,1.05-.11.58-.11.73-.71.84-1.51.15-1.15.15-3.33.15-5.85v-4.84c0-4.18,0-4.95-.06-5.83-.06-.93-.29-1.37-1.25-1.57-.23-.05-.58-.08-.96-.08-.32,0-.49-.05-.49-.25s.2-.25.64-.25c1.37,0,3.2.08,3.98.08.7,0,2.82-.08,3.95-.08.41,0,.61.05.61.25s-.17.25-.52.25c-.32,0-.78.03-1.13.08-.78.14-1.02.6-1.08,1.57-.06.88-.06,1.65-.06,5.83v4.84Z"/>
          <path class="cls-2" d="m285.55,158.74c0-4.18,0-4.95-.06-5.83-.06-.93-.35-1.4-.99-1.54-.32-.08-.7-.11-1.05-.11-.29,0-.46-.05-.46-.28,0-.16.23-.22.7-.22,1.1,0,2.94.08,3.78.08.73,0,2.44-.08,3.55-.08.38,0,.61.05.61.22,0,.22-.17.28-.46.28s-.52.03-.87.08c-.78.14-1.02.6-1.08,1.57-.06.88-.06,1.65-.06,5.83v4.84c0,2.67,0,4.84.12,6.02.09.74.29,1.24,1.16,1.35.41.05,1.05.11,1.48.11.32,0,.46.08.46.22,0,.19-.23.28-.55.28-1.92,0-3.75-.08-4.54-.08-.67,0-2.5.08-3.66.08-.38,0-.58-.08-.58-.28,0-.14.12-.22.47-.22.44,0,.78-.05,1.05-.11.58-.11.76-.58.84-1.37.15-1.15.15-3.33.15-5.99v-4.84Zm.17-11.63c0-.69.46-1.59,1.63-1.59.93,0,1.66.58,1.66,1.48s-.67,1.65-1.66,1.65c-1.16,0-1.63-.85-1.63-1.54Z"/>
          <path class="cls-2" d="m306.73,151.1c.09-.47.26-.71.49-.71s.41.14.78.85l7.94,15.28,7.91-15.47c.23-.44.38-.66.64-.66s.44.27.52.85l2.65,16.82c.26,1.73.55,2.53,1.42,2.78.84.25,1.42.27,1.8.27.26,0,.47.03.47.19,0,.22-.35.3-.76.3-.73,0-4.74-.05-5.9-.14-.67-.05-.84-.14-.84-.3,0-.14.12-.22.32-.3.17-.05.26-.41.15-1.18l-1.74-11.96h-.12l-6.34,12.26c-.67,1.29-.81,1.54-1.08,1.54s-.55-.55-1.02-1.37c-.7-1.26-2.99-5.47-3.34-6.24-.26-.58-2.01-3.82-3.02-5.88h-.12l-1.51,10.72c-.06.49-.09.85-.09,1.29,0,.52.38.77.87.88.52.11.93.14,1.22.14.23,0,.44.05.44.19,0,.25-.26.3-.7.3-1.22,0-2.53-.08-3.05-.08-.55,0-1.95.08-2.88.08-.29,0-.52-.05-.52-.3,0-.14.17-.19.47-.19.23,0,.44,0,.87-.08.81-.17,1.05-1.24,1.19-2.17l2.88-17.7Z"/>
        </g>
        <g>
          <path class="cls-2" d="m20.15,193.27c0-4.15,0-4.9-.06-5.75-.06-.9-.29-1.33-1.25-1.52-.23-.05-.73-.08-.99-.08-.12,0-.23-.05-.23-.16,0-.16.15-.21.47-.21,1.31,0,3.09.08,3.35.08s2.01-.08,2.89-.08c.32,0,.47.05.47.21,0,.11-.12.16-.23.16-.2,0-.38.03-.73.08-.79.11-1.02.59-1.08,1.52-.06.85-.06,1.6-.06,5.75v3.73c0,3.84.93,5.49,2.19,6.58,1.43,1.23,2.74,1.46,4.4,1.46,1.78,0,3.53-.77,4.58-1.92,1.34-1.52,1.69-3.78,1.69-6.52v-3.33c0-4.15,0-4.9-.06-5.75-.06-.9-.29-1.33-1.25-1.52-.23-.05-.73-.08-.99-.08-.12,0-.23-.05-.23-.16,0-.16.15-.21.47-.21,1.31,0,2.92.08,3.09.08.2,0,1.57-.08,2.45-.08.32,0,.47.05.47.21,0,.11-.12.16-.23.16-.2,0-.38.03-.73.08-.79.16-1.02.59-1.08,1.52-.06.85-.06,1.6-.06,5.75v2.85c0,2.88-.35,6.07-2.68,7.96-2.1,1.7-4.29,1.97-6.01,1.97-.99,0-3.94-.11-6.01-1.89-1.43-1.25-2.54-3.12-2.54-7v-3.89Zm4.99-10.92c0-.48.35-1.15,1.25-1.15.7,0,1.25.4,1.25,1.07s-.5,1.22-1.28,1.22c-.87,0-1.22-.64-1.22-1.15Zm5.86,0c0-.48.35-1.15,1.25-1.15.7,0,1.25.4,1.25,1.07s-.5,1.22-1.28,1.22c-.87,0-1.22-.64-1.22-1.15Z"/>
          <path class="cls-2" d="m53.81,202.06c.06,2.18.35,2.88,1.14,3.09.55.13,1.2.16,1.46.16.15,0,.23.05.23.16,0,.16-.17.21-.52.21-1.66,0-2.83-.08-3.09-.08s-1.49.08-2.8.08c-.29,0-.47-.03-.47-.21,0-.11.09-.16.23-.16.23,0,.76-.03,1.2-.16.73-.19.87-.96.87-3.38l.03-15.26c0-1.04.09-1.33.32-1.33s.73.59,1.02.85c.44.45,4.78,4.74,9.27,9.13,2.89,2.82,6.06,6.07,7,6.95l-.32-13.53c-.03-1.73-.23-2.32-1.14-2.53-.52-.11-1.2-.13-1.43-.13-.2,0-.23-.08-.23-.19,0-.16.23-.19.58-.19,1.31,0,2.71.08,3.03.08s1.28-.08,2.48-.08c.32,0,.52.03.52.19,0,.11-.12.19-.32.19-.15,0-.35,0-.7.08-.96.19-1.08.77-1.08,2.37l-.06,15.6c0,1.76-.06,1.89-.26,1.89-.23,0-.58-.29-2.13-1.7-.32-.27-4.52-4.18-7.61-7.22-3.38-3.33-6.68-6.68-7.61-7.64l.38,12.76Z"/>
          <path class="cls-2" d="m90.07,197.96c0,2.56,0,4.66.15,5.78.09.77.26,1.36,1.14,1.46.41.05,1.05.11,1.31.11.17,0,.23.08.23.16,0,.13-.15.21-.47.21-1.6,0-3.44-.08-3.59-.08s-1.98.08-2.86.08c-.32,0-.47-.05-.47-.21,0-.08.06-.16.23-.16.26,0,.61-.05.87-.11.58-.11.73-.69.85-1.46.15-1.12.15-3.22.15-5.78v-4.69c0-4.15,0-4.9-.06-5.75-.06-.9-.35-1.36-.99-1.49-.32-.08-.7-.11-.9-.11-.12,0-.23-.05-.23-.16,0-.16.15-.21.47-.21.96,0,2.8.08,2.94.08s1.98-.08,2.86-.08c.32,0,.47.05.47.21,0,.11-.12.16-.23.16-.2,0-.38.03-.73.08-.79.13-1.02.59-1.08,1.52-.06.85-.06,1.6-.06,5.75v4.69Zm-2.71-15.82c0-.59.44-1.38,1.49-1.38.85,0,1.52.51,1.52,1.3s-.61,1.44-1.52,1.44c-1.05,0-1.49-.75-1.49-1.36Z"/>
          <path class="cls-2" d="m113.77,202.44c1.69-3.57,5.6-12.86,6.24-14.78.15-.4.26-.77.26-1.01,0-.21-.09-.48-.38-.61-.35-.11-.79-.11-1.11-.11-.17,0-.32-.03-.32-.16,0-.16.17-.21.64-.21,1.17,0,2.51.08,2.86.08.17,0,1.43-.08,2.27-.08.32,0,.5.05.5.19s-.12.19-.35.19c-.2,0-.85,0-1.4.32-.38.24-.82.69-1.6,2.5-.32.75-1.78,3.94-3.27,7.22-1.78,3.89-3.09,6.76-3.76,8.07-.82,1.6-.93,2.02-1.22,2.02-.35,0-.5-.37-1.05-1.65l-7.14-16.32c-.64-1.49-1.08-1.78-2.1-2.05-.44-.11-.93-.11-1.11-.11s-.23-.08-.23-.19c0-.16.29-.19.76-.19,1.4,0,3.06.08,3.41.08.29,0,1.6-.08,2.71-.08.52,0,.79.05.79.19s-.09.19-.29.19c-.32,0-.85.03-1.11.13-.32.13-.38.35-.38.53,0,.35.35,1.17.79,2.21l5.6,13.63Z"/>
          <path class="cls-2" d="m136.07,193.27c0-4.15,0-4.9-.06-5.75-.06-.9-.29-1.33-1.25-1.52-.23-.05-.73-.08-.99-.08-.12,0-.23-.05-.23-.16,0-.16.15-.21.47-.21.67,0,1.46,0,2.1.03l1.2.05c.2,0,6.01,0,6.68-.03.55-.03,1.02-.08,1.25-.13.15-.03.26-.13.41-.13.09,0,.12.11.12.24,0,.19-.15.51-.23,1.25-.03.27-.09,1.44-.15,1.76-.03.13-.09.29-.2.29-.17,0-.23-.13-.23-.35,0-.19-.03-.64-.17-.96-.2-.43-.5-.75-2.07-.91-.5-.05-3.67-.08-3.99-.08-.12,0-.17.08-.17.27v7.35c0,.19.03.27.17.27.38,0,3.96,0,4.64-.05.7-.05,1.11-.11,1.37-.37.2-.21.32-.35.44-.35.09,0,.15.05.15.21s-.15.61-.23,1.49c-.06.53-.12,1.52-.12,1.7,0,.21,0,.51-.2.51-.15,0-.2-.11-.2-.24,0-.27,0-.53-.12-.88-.12-.37-.38-.83-1.52-.93-.79-.08-3.67-.13-4.17-.13-.15,0-.2.08-.2.19v2.34c0,.91-.03,3.99,0,4.55.09,1.84.52,2.18,3.38,2.18.76,0,2.04,0,2.8-.29s1.11-.83,1.31-1.92c.06-.29.12-.4.26-.4.17,0,.17.21.17.4,0,.21-.23,2.02-.38,2.58-.2.69-.44.69-1.57.69-2.19,0-3.79-.05-4.93-.08-1.14-.05-1.84-.08-2.27-.08-.06,0-.55,0-1.17.03-.58,0-1.25.05-1.69.05-.32,0-.47-.05-.47-.21,0-.08.06-.16.23-.16.26,0,.61-.05.87-.11.58-.11.73-.69.85-1.46.15-1.12.15-3.22.15-5.78v-4.69Z"/>
          <path class="cls-2" d="m160.84,193.27c0-4.15,0-4.9-.06-5.75-.06-.9-.29-1.33-1.25-1.52-.23-.05-.73-.08-.99-.08-.12,0-.23-.05-.23-.16,0-.16.15-.21.47-.21,1.31,0,3.15.08,3.29.08.32,0,2.54-.08,3.44-.08,1.84,0,3.79.16,5.33,1.17.73.48,2.01,1.78,2.01,3.62,0,1.97-.9,3.94-3.53,6.15,2.39,2.8,4.37,5.17,6.06,6.82,1.57,1.52,2.83,1.81,3.56,1.92.55.08.96.08,1.14.08.15,0,.26.08.26.16,0,.16-.17.21-.7.21h-2.07c-1.63,0-2.36-.13-3.12-.51-1.25-.61-2.27-1.92-3.94-3.91-1.22-1.46-2.59-3.25-3.18-3.94-.12-.11-.2-.16-.38-.16l-3.59-.05c-.15,0-.2.08-.2.21v.64c0,2.56,0,4.66.15,5.78.09.77.26,1.36,1.14,1.46.41.05,1.05.11,1.31.11.17,0,.23.08.23.16,0,.13-.15.21-.47.21-1.6,0-3.44-.08-3.59-.08-.03,0-1.87.08-2.74.08-.32,0-.47-.05-.47-.21,0-.08.06-.16.23-.16.26,0,.61-.05.87-.11.58-.11.73-.69.85-1.46.15-1.12.15-3.22.15-5.78v-4.69Zm2.33,2.32c0,.13.06.24.2.32.44.24,1.78.43,3.06.43.7,0,1.52-.08,2.19-.51,1.02-.64,1.78-2.08,1.78-4.1,0-3.33-1.92-5.33-5.04-5.33-.87,0-1.66.08-1.95.16-.15.05-.23.16-.23.32v8.71Z"/>
          <path class="cls-2" d="m187.66,205.34c-.41-.19-.44-.29-.44-1.01,0-1.33.12-2.4.15-2.82.03-.29.09-.43.23-.43.17,0,.2.08.2.29,0,.24,0,.61.09.98.44,1.97,2.36,2.72,4.31,2.72,2.8,0,4.17-1.84,4.17-3.54,0-1.84-.85-2.9-3.35-4.79l-1.31-.98c-3.09-2.32-3.79-3.97-3.79-5.78,0-2.85,2.33-4.79,6.04-4.79,1.14,0,1.98.11,2.71.27.55.11.79.13,1.02.13s.29.05.29.19-.12,1.01-.12,2.82c0,.43-.06.61-.2.61-.17,0-.2-.13-.23-.35-.03-.32-.2-1.04-.38-1.33-.17-.29-.96-1.41-3.64-1.41-2.01,0-3.59,1.15-3.59,3.09,0,1.52.76,2.48,3.56,4.47l.82.59c3.44,2.48,4.26,4.13,4.26,6.26,0,1.09-.47,3.12-2.48,4.42-1.25.8-2.83,1.12-4.4,1.12-1.37,0-2.71-.19-3.91-.72Z"/>
          <path class="cls-2" d="m215.58,197.96c0,2.56,0,4.66.15,5.78.09.77.26,1.36,1.14,1.46.41.05,1.05.11,1.31.11.17,0,.23.08.23.16,0,.13-.15.21-.47.21-1.6,0-3.44-.08-3.59-.08s-1.98.08-2.86.08c-.32,0-.47-.05-.47-.21,0-.08.06-.16.23-.16.26,0,.61-.05.87-.11.58-.11.73-.69.85-1.46.15-1.12.15-3.22.15-5.78v-4.69c0-4.15,0-4.9-.06-5.75-.06-.9-.35-1.36-.99-1.49-.32-.08-.7-.11-.9-.11-.12,0-.23-.05-.23-.16,0-.16.15-.21.47-.21.96,0,2.8.08,2.94.08s1.98-.08,2.86-.08c.32,0,.47.05.47.21,0,.11-.12.16-.23.16-.2,0-.38.03-.73.08-.79.13-1.02.59-1.08,1.52-.06.85-.06,1.6-.06,5.75v4.69Zm-2.71-15.82c0-.59.44-1.38,1.49-1.38.85,0,1.52.51,1.52,1.3s-.61,1.44-1.52,1.44c-1.05,0-1.49-.75-1.49-1.36Z"/>
          <path class="cls-2" d="m239.16,197.96c0,2.56,0,4.66.15,5.78.09.77.26,1.36,1.14,1.46.41.05,1.05.11,1.31.11.17,0,.23.08.23.16,0,.13-.15.21-.47.21-1.6,0-3.44-.08-3.59-.08s-1.98.08-2.86.08c-.32,0-.47-.05-.47-.21,0-.08.06-.16.23-.16.26,0,.61-.05.87-.11.58-.11.73-.69.85-1.46.15-1.12.15-3.22.15-5.78v-11.26l-4.31.05c-1.81.03-2.51.21-2.97.85-.32.45-.41.64-.5.83-.09.21-.17.27-.29.27-.09,0-.15-.08-.15-.24,0-.27.58-2.56.64-2.77.06-.16.17-.51.29-.51.2,0,.5.27,1.28.32.85.08,1.95.13,2.3.13h10.93c.93,0,1.6-.05,2.07-.13.44-.05.7-.13.82-.13.15,0,.15.16.15.32,0,.8-.09,2.64-.09,2.93,0,.24-.09.35-.2.35-.15,0-.2-.08-.23-.45l-.03-.29c-.09-.8-.79-1.41-3.59-1.46l-3.67-.05v11.26Z"/>
          <path class="cls-2" d="m260.09,193.27c0-4.15,0-4.9-.06-5.75-.06-.9-.29-1.33-1.25-1.52-.23-.05-.73-.08-.99-.08-.12,0-.23-.05-.23-.16,0-.16.15-.21.47-.21.67,0,1.46,0,2.1.03l1.2.05c.2,0,6.01,0,6.68-.03.55-.03,1.02-.08,1.25-.13.15-.03.26-.13.41-.13.09,0,.12.11.12.24,0,.19-.15.51-.23,1.25-.03.27-.09,1.44-.15,1.76-.03.13-.09.29-.2.29-.17,0-.23-.13-.23-.35,0-.19-.03-.64-.17-.96-.2-.43-.5-.75-2.07-.91-.5-.05-3.67-.08-3.99-.08-.12,0-.17.08-.17.27v7.35c0,.19.03.27.17.27.38,0,3.96,0,4.64-.05.7-.05,1.11-.11,1.37-.37.2-.21.32-.35.44-.35.09,0,.15.05.15.21s-.15.61-.23,1.49c-.06.53-.12,1.52-.12,1.7,0,.21,0,.51-.2.51-.15,0-.2-.11-.2-.24,0-.27,0-.53-.12-.88-.12-.37-.38-.83-1.52-.93-.79-.08-3.67-.13-4.17-.13-.15,0-.2.08-.2.19v2.34c0,.91-.03,3.99,0,4.55.09,1.84.52,2.18,3.38,2.18.76,0,2.04,0,2.8-.29.76-.29,1.11-.83,1.31-1.92.06-.29.12-.4.26-.4.17,0,.17.21.17.4,0,.21-.23,2.02-.38,2.58-.2.69-.44.69-1.57.69-2.19,0-3.79-.05-4.93-.08-1.14-.05-1.84-.08-2.27-.08-.06,0-.55,0-1.17.03-.58,0-1.25.05-1.69.05-.32,0-.47-.05-.47-.21,0-.08.06-.16.23-.16.26,0,.61-.05.87-.11.58-.11.73-.69.85-1.46.15-1.12.15-3.22.15-5.78v-4.69Z"/>
          <path class="cls-2" d="m283,205.34c-.41-.19-.44-.29-.44-1.01,0-1.33.12-2.4.15-2.82.03-.29.09-.43.23-.43.17,0,.2.08.2.29,0,.24,0,.61.09.98.44,1.97,2.36,2.72,4.31,2.72,2.8,0,4.17-1.84,4.17-3.54,0-1.84-.85-2.9-3.35-4.79l-1.31-.98c-3.09-2.32-3.79-3.97-3.79-5.78,0-2.85,2.33-4.79,6.04-4.79,1.14,0,1.98.11,2.71.27.55.11.79.13,1.02.13s.29.05.29.19-.12,1.01-.12,2.82c0,.43-.06.61-.2.61-.17,0-.2-.13-.23-.35-.03-.32-.2-1.04-.38-1.33-.17-.29-.96-1.41-3.64-1.41-2.01,0-3.59,1.15-3.59,3.09,0,1.52.76,2.48,3.56,4.47l.82.59c3.44,2.48,4.26,4.13,4.26,6.26,0,1.09-.47,3.12-2.48,4.42-1.25.8-2.83,1.12-4.4,1.12-1.37,0-2.71-.19-3.91-.72Z"/>
          <path class="cls-2" d="m310.92,197.96c0,2.56,0,4.66.15,5.78.09.77.26,1.36,1.14,1.46.41.05,1.05.11,1.31.11.17,0,.23.08.23.16,0,.13-.15.21-.47.21-1.6,0-3.44-.08-3.59-.08s-1.98.08-2.86.08c-.32,0-.47-.05-.47-.21,0-.08.06-.16.23-.16.26,0,.61-.05.87-.11.58-.11.73-.69.85-1.46.15-1.12.15-3.22.15-5.78v-4.69c0-4.15,0-4.9-.06-5.75-.06-.9-.35-1.36-.99-1.49-.32-.08-.7-.11-.9-.11-.12,0-.23-.05-.23-.16,0-.16.15-.21.47-.21.96,0,2.8.08,2.94.08s1.98-.08,2.86-.08c.32,0,.47.05.47.21,0,.11-.12.16-.23.16-.2,0-.38.03-.73.08-.79.13-1.02.59-1.08,1.52-.06.85-.06,1.6-.06,5.75v4.69Zm-2.71-15.82c0-.59.44-1.38,1.49-1.38.85,0,1.52.51,1.52,1.3s-.61,1.44-1.52,1.44c-1.05,0-1.49-.75-1.49-1.36Z"/>
        </g>
      </g>
    </g>
  </g>
</svg>